M48
; DRILL file {KiCad (5.1.8)-1} date 03/01/21 21:59:08
; FORMAT={-:-/ absolute / inch / decimal}
; #@! TF.CreationDate,2021-03-01T21:59:08+08:00
; #@! TF.GenerationSoftware,Kicad,Pcbnew,(5.1.8)-1
; #@! TF.FileFunction,Plated,1,2,PTH
FMAT,2
INCH
T1C0.0157
T2C0.0236
T3C0.0315
T4C0.0339
T5C0.0346
T6C0.0362
T7C0.0394
T8C0.0551
T9C0.0630
T10C0.0709
T11C0.1181
%
G90
G05
T1
X2.1276Y-3.2323
X2.1276Y-3.2665
X2.1276Y-3.3016
X2.1276Y-3.3358
X2.1614Y-3.2323
X2.1614Y-3.2665
X2.1614Y-3.3016
X2.1614Y-3.3358
X2.1961Y-3.2323
X2.1961Y-3.2665
X2.1961Y-3.3016
X2.1961Y-3.3358
X2.2299Y-3.2323
X2.2299Y-3.2665
X2.2299Y-3.3016
X2.2299Y-3.3358
X2.2646Y-3.2327
X2.2646Y-3.2669
X2.2646Y-3.302
X2.2646Y-3.3362
X2.2984Y-3.2327
X2.2984Y-3.2669
X2.2984Y-3.302
X2.2984Y-3.3362
X2.3331Y-3.2327
X2.3331Y-3.2669
X2.3331Y-3.302
X2.3331Y-3.3362
X2.3669Y-3.2327
X2.3669Y-3.2669
X2.3669Y-3.302
X2.3669Y-3.3362
X2.6232Y-4.6138
X2.6232Y-4.648
X2.6232Y-4.6831
X2.6571Y-4.6138
X2.6571Y-4.648
X2.6571Y-4.6831
X2.6909Y-4.6138
X2.6909Y-4.648
X2.6909Y-4.6831
X2.7657Y-3.9366
X3.0248Y-3.8846
X3.0248Y-3.9189
X3.0248Y-3.9539
X3.0248Y-3.9882
X3.0291Y-2.7925
X3.0291Y-2.8287
X3.0591Y-3.8846
X3.0591Y-3.9189
X3.0591Y-3.9539
X3.0591Y-3.9882
X3.0709Y-2.7925
X3.0709Y-2.8287
X3.0929Y-3.8846
X3.0929Y-3.9189
X3.0929Y-3.9539
X3.0929Y-3.9882
X3.1118Y-2.7925
X3.1118Y-2.8287
X3.1276Y-3.8846
X3.1276Y-3.9189
X3.1276Y-3.9539
X3.1276Y-3.9882
X3.1535Y-2.7929
X3.1535Y-2.8291
X3.1929Y-3.385
X3.4843Y-4.2323
X3.5728Y-4.037
X3.6941Y-3.2185
X3.6941Y-3.2528
X3.6941Y-3.2878
X3.6941Y-3.322
X3.6941Y-3.3583
X3.6941Y-3.3933
X3.6941Y-3.4276
X3.6941Y-3.463
X3.6941Y-3.498
X3.6941Y-3.5323
X3.698Y-4.5799
X3.698Y-4.6142
X3.698Y-4.6492
X3.698Y-4.6835
X3.6984Y-4.3705
X3.6984Y-4.4047
X3.6984Y-4.4398
X3.6984Y-4.4752
X3.6984Y-4.5094
X3.6984Y-4.5445
X3.7098Y-3.7709
X3.7287Y-3.2185
X3.7287Y-3.2528
X3.7287Y-3.2878
X3.7287Y-3.322
X3.7287Y-3.3583
X3.7287Y-3.3933
X3.7287Y-3.4276
X3.7287Y-3.463
X3.7287Y-3.498
X3.7287Y-3.5323
X3.7327Y-4.5799
X3.7327Y-4.6142
X3.7327Y-4.6492
X3.7327Y-4.6835
X3.7331Y-4.3705
X3.7331Y-4.4047
X3.7331Y-4.4398
X3.7331Y-4.4752
X3.7331Y-4.5094
X3.7331Y-4.5445
X3.7626Y-3.2185
X3.7626Y-3.2528
X3.7626Y-3.2878
X3.7626Y-3.322
X3.7626Y-3.3583
X3.7626Y-3.3933
X3.7626Y-3.4276
X3.7626Y-3.463
X3.7626Y-3.498
X3.7626Y-3.5323
X3.7665Y-4.5799
X3.7665Y-4.6142
X3.7665Y-4.6492
X3.7665Y-4.6835
X3.7669Y-4.3705
X3.7669Y-4.4047
X3.7669Y-4.4398
X3.7669Y-4.4752
X3.7669Y-4.5094
X3.7669Y-4.5445
X3.7969Y-3.2185
X3.7969Y-3.2528
X3.7969Y-3.2878
X3.7969Y-3.322
X3.7969Y-3.3583
X3.7969Y-3.3933
X3.7969Y-3.4276
X3.7969Y-3.463
X3.7969Y-3.498
X3.7969Y-3.5323
X3.8004Y-4.5799
X3.8004Y-4.6142
X3.8004Y-4.6492
X3.8004Y-4.6835
X3.8008Y-4.3705
X3.8008Y-4.4047
X3.8008Y-4.4398
X3.8008Y-4.4752
X3.8008Y-4.5094
X3.8008Y-4.5445
X4.1189Y-4.1894
X4.1189Y-4.228
X4.1189Y-4.2673
X4.1189Y-4.3059
X4.1224Y-3.5626
X4.1224Y-3.6016
X4.1224Y-3.6398
X4.1224Y-3.6787
X4.1598Y-4.1894
X4.1598Y-4.228
X4.1598Y-4.2673
X4.1598Y-4.3059
X4.161Y-3.563
X4.161Y-3.6012
X4.161Y-3.6402
X4.161Y-3.6787
X4.2756Y-2.735
X4.2756Y-2.7701
X4.2756Y-2.8047
X4.2756Y-2.839
X4.2756Y-2.874
X4.2756Y-2.9083
X4.2756Y-2.9429
X4.2756Y-2.9772
X4.2756Y-3.0122
X4.2756Y-3.0465
X4.278Y-4.8354
X4.278Y-4.8697
X4.278Y-4.9047
X4.278Y-4.939
X4.278Y-4.9732
X4.278Y-5.0075
X4.278Y-5.0425
X4.278Y-5.0768
X4.2787Y-5.1122
X4.2787Y-5.1472
X4.311Y-2.735
X4.311Y-2.7701
X4.311Y-2.8047
X4.311Y-2.839
X4.311Y-2.874
X4.311Y-2.9083
X4.311Y-2.9429
X4.311Y-2.9772
X4.311Y-3.0122
X4.311Y-3.0465
X4.313Y-4.8354
X4.313Y-4.8697
X4.313Y-4.9047
X4.313Y-4.939
X4.313Y-4.9732
X4.313Y-5.0075
X4.313Y-5.0425
X4.313Y-5.0768
X4.3138Y-5.1122
X4.3138Y-5.1472
X4.3457Y-2.735
X4.3457Y-2.7701
X4.3457Y-2.8047
X4.3457Y-2.839
X4.3457Y-2.874
X4.3457Y-2.9083
X4.3457Y-2.9429
X4.3457Y-2.9772
X4.3457Y-3.0122
X4.3457Y-3.0465
X4.3476Y-4.8354
X4.3476Y-4.8697
X4.3476Y-4.9047
X4.3476Y-4.939
X4.3476Y-4.9732
X4.3476Y-5.0075
X4.3476Y-5.0425
X4.3476Y-5.0768
X4.3484Y-5.1122
X4.3484Y-5.1472
X4.3795Y-2.735
X4.3795Y-2.7701
X4.3795Y-2.8047
X4.3795Y-2.839
X4.3795Y-2.874
X4.3795Y-2.9083
X4.3795Y-2.9429
X4.3795Y-2.9772
X4.3795Y-3.0122
X4.3795Y-3.0465
X4.3815Y-4.8354
X4.3815Y-4.8697
X4.3815Y-4.9047
X4.3815Y-4.939
X4.3815Y-4.9732
X4.3815Y-5.0075
X4.3815Y-5.0425
X4.3815Y-5.0768
X4.3823Y-5.1122
X4.3823Y-5.1472
X4.4504Y-3.9039
X4.4504Y-3.9382
X4.4504Y-3.9732
X4.4843Y-3.9039
X4.4843Y-3.9382
X4.4843Y-3.9732
X4.5189Y-3.9039
X4.5189Y-3.9382
X4.5189Y-3.9732
X4.5528Y-3.9039
X4.5528Y-3.9382
X4.5528Y-3.9732
X4.5874Y-3.9039
X4.5874Y-3.9382
X4.5874Y-3.9732
X4.622Y-3.9039
X4.622Y-3.9382
X4.622Y-3.9732
X4.6559Y-3.9039
X4.6559Y-3.9382
X4.6559Y-3.9732
X5.5169Y-3.9209
X5.5169Y-3.9551
X5.5508Y-3.9209
X5.5508Y-3.9551
X5.5854Y-3.9209
X5.5854Y-3.9551
X5.6201Y-3.9209
X5.6201Y-3.9551
X5.6539Y-3.9209
X5.6539Y-3.9551
X5.6886Y-3.9209
X5.6886Y-3.9551
X5.7224Y-3.9209
X5.7224Y-3.9551
X5.7571Y-3.9209
X5.7571Y-3.9551
X5.7917Y-3.9209
X5.7917Y-3.9551
X3.9469Y-3.7835
X3.9469Y-3.8346
X3.9469Y-3.8858
X3.9469Y-3.937
X3.9469Y-3.9882
X3.9469Y-4.0394
X3.9469Y-4.0906
X4.0059Y-3.7835
X4.0059Y-3.8346
X4.0059Y-3.8858
X4.0059Y-3.937
X4.0059Y-3.9882
X4.0059Y-4.0394
X4.0059Y-4.0906
T2
X4.1661Y-3.1811
X4.1661Y-3.2677
X4.1661Y-4.6063
X4.1661Y-4.6929
X5.126Y-3.937
X5.2701Y-3.6024
X5.2701Y-4.2717
T3
X5.6161Y-4.737
X5.6173Y-5.0173
X2.3622Y-3.5236
X2.3622Y-3.7205
X2.8028Y-3.472
X2.8028Y-3.572
X2.8028Y-3.672
X2.8028Y-3.772
X3.1028Y-3.472
X3.1028Y-3.572
X3.1028Y-3.672
X3.1028Y-3.772
X2.3622Y-4.1535
X2.3622Y-4.3504
X2.8028Y-4.102
X2.8028Y-4.202
X2.8028Y-4.302
X2.8028Y-4.402
X3.1028Y-4.102
X3.1028Y-4.202
X3.1028Y-4.302
X3.1028Y-4.402
T4
X2.187Y-3.887
X2.187Y-3.987
T6
X2.1693Y-4.7835
X2.1693Y-4.8819
X2.1693Y-4.9803
X2.2677Y-4.7835
X2.2677Y-4.8819
X2.2677Y-4.9803
T7
X3.3465Y-2.9921
X3.5433Y-2.9921
X3.3465Y-4.8819
X3.5433Y-4.8819
X3.878Y-4.8819
X4.0748Y-4.8819
X3.878Y-2.9921
X4.0748Y-2.9921
T8
X5.5709Y-4.1535
X5.5709Y-4.3504
X5.5709Y-3.5236
X5.5709Y-3.7205
T9
X2.0732Y-2.8937
X2.0732Y-3.0906
X2.5732Y-2.9921
X2.7228Y-2.9929
X2.8724Y-2.9953
T11
X3.9764Y-3.4449
X3.9764Y-4.4291
T5
G00X5.6374Y-2.8071
M15
G01X5.5673Y-2.8071
M16
G05
T7
G00X5.4843Y-3.0354
M15
G01X5.4843Y-2.9488
M16
G05
G00X5.7283Y-3.0276
M15
G01X5.7283Y-2.9567
M16
G05
T10
G00X5.4724Y-4.8819
M15
G01X5.4724Y-4.8819
M16
G05
G00X5.748Y-4.8819
M15
G01X5.748Y-4.8819
M16
G05
T0
M30
